REM DIRINDEX 1\2,1\3,1\4,1\5
REM DIRNAME cjc044,folder01,folder02,folder03,folder04
TITLE ""
FILE "1800_036.mp3" MP3
  TRACK 01 AUDIO
    TITLE "2:cjc044_0769"
    INDEX 01 00:00:00
  TRACK 02 AUDIO
    TITLE "0:"
    INDEX 01 00:00:60
  TRACK 03 AUDIO
    TITLE "3:cjc044_0770"
    INDEX 01 00:01:48
  TRACK 04 AUDIO
    TITLE "0:"
    INDEX 01 00:02:67
  TRACK 05 AUDIO
    TITLE "4:cjc044_0771"
    INDEX 01 00:03:47
  TRACK 06 AUDIO
    TITLE "0:"
    INDEX 01 00:04:42
  TRACK 07 AUDIO
    TITLE "5:cjc044_0772"
    INDEX 01 00:05:12
  TRACK 08 AUDIO
    TITLE "0:"
    INDEX 01 00:09:28
  TRACK 09 AUDIO
    TITLE "2:cjc044_0773"
    INDEX 01 00:11:07
  TRACK 10 AUDIO
    TITLE "0:"
    INDEX 01 00:12:30
  TRACK 11 AUDIO
    TITLE "3:cjc044_0774"
    INDEX 01 00:13:16
  TRACK 12 AUDIO
    TITLE "0:"
    INDEX 01 00:14:31
  TRACK 13 AUDIO
    TITLE "4:cjc044_0775"
    INDEX 01 00:15:19
  TRACK 14 AUDIO
    TITLE "0:"
    INDEX 01 00:16:40
  TRACK 15 AUDIO
    TITLE "5:cjc044_0776"
    INDEX 01 00:17:16
  TRACK 16 AUDIO
    TITLE "0:"
    INDEX 01 00:21:21
  TRACK 17 AUDIO
    TITLE "2:cjc044_0777"
    INDEX 01 00:23:08
  TRACK 18 AUDIO
    TITLE "0:"
    INDEX 01 00:24:24
  TRACK 19 AUDIO
    TITLE "3:cjc044_0778"
    INDEX 01 00:25:07
  TRACK 20 AUDIO
    TITLE "0:"
    INDEX 01 00:26:30
  TRACK 21 AUDIO
    TITLE "4:cjc044_0779"
    INDEX 01 00:27:12
  TRACK 22 AUDIO
    TITLE "0:"
    INDEX 01 00:28:27
  TRACK 23 AUDIO
    TITLE "5:cjc044_0780"
    INDEX 01 00:29:09
  TRACK 24 AUDIO
    TITLE "0:"
    INDEX 01 00:32:13
  TRACK 25 AUDIO
    TITLE "2:cjc044_0781"
    INDEX 01 00:33:69
  TRACK 26 AUDIO
    TITLE "0:"
    INDEX 01 00:34:69
  TRACK 27 AUDIO
    TITLE "3:cjc044_0782"
    INDEX 01 00:35:55
  TRACK 28 AUDIO
    TITLE "0:"
    INDEX 01 00:36:48
  TRACK 29 AUDIO
    TITLE "4:cjc044_0783"
    INDEX 01 00:37:36
  TRACK 30 AUDIO
    TITLE "0:"
    INDEX 01 00:38:39
  TRACK 31 AUDIO
    TITLE "5:cjc044_0784"
    INDEX 01 00:39:21
  TRACK 32 AUDIO
    TITLE "0:"
    INDEX 01 00:42:39
  TRACK 33 AUDIO
    TITLE "2:cjc044_0785"
    INDEX 01 00:44:26
  TRACK 34 AUDIO
    TITLE "0:"
    INDEX 01 00:45:22
  TRACK 35 AUDIO
    TITLE "3:cjc044_0786"
    INDEX 01 00:46:04
  TRACK 36 AUDIO
    TITLE "0:"
    INDEX 01 00:47:19
  TRACK 37 AUDIO
    TITLE "4:cjc044_0787"
    INDEX 01 00:48:08
  TRACK 38 AUDIO
    TITLE "0:"
    INDEX 01 00:49:06
  TRACK 39 AUDIO
    TITLE "5:cjc044_0788"
    INDEX 01 00:49:57
  TRACK 40 AUDIO
    TITLE "0:"
    INDEX 01 00:52:45
  TRACK 41 AUDIO
    TITLE "2:cjc044_0789"
    INDEX 01 00:54:38
  TRACK 42 AUDIO
    TITLE "0:"
    INDEX 01 00:55:36
  TRACK 43 AUDIO
    TITLE "3:cjc044_0790"
    INDEX 01 00:56:24
  TRACK 44 AUDIO
    TITLE "0:"
    INDEX 01 00:57:27
  TRACK 45 AUDIO
    TITLE "4:cjc044_0791"
    INDEX 01 00:58:17
  TRACK 46 AUDIO
    TITLE "0:"
    INDEX 01 00:59:12
  TRACK 47 AUDIO
    TITLE "5:cjc044_0792"
    INDEX 01 00:59:65
  TRACK 48 AUDIO
    TITLE "0:"
    INDEX 01 01:03:33
  TRACK 49 AUDIO
    TITLE "2:cjc044_0793"
    INDEX 01 01:05:22
  TRACK 50 AUDIO
    TITLE "0:"
    INDEX 01 01:06:30
  TRACK 51 AUDIO
    TITLE "3:cjc044_0794"
    INDEX 01 01:07:19
  TRACK 52 AUDIO
    TITLE "0:"
    INDEX 01 01:08:35
  TRACK 53 AUDIO
    TITLE "4:cjc044_0795"
    INDEX 01 01:09:22
  TRACK 54 AUDIO
    TITLE "0:"
    INDEX 01 01:10:30
  TRACK 55 AUDIO
    TITLE "5:cjc044_0796"
    INDEX 01 01:11:02
  TRACK 56 AUDIO
    TITLE "0:"
    INDEX 01 01:14:06
  TRACK 57 AUDIO
    TITLE "2:cjc044_0797"
    INDEX 01 01:15:74
  TRACK 58 AUDIO
    TITLE "0:"
    INDEX 01 01:17:00
  TRACK 59 AUDIO
    TITLE "3:cjc044_0798"
    INDEX 01 01:17:65
  TRACK 60 AUDIO
    TITLE "0:"
    INDEX 01 01:19:13
  TRACK 61 AUDIO
    TITLE "4:cjc044_0799"
    INDEX 01 01:20:04
  TRACK 62 AUDIO
    TITLE "0:"
    INDEX 01 01:21:06
  TRACK 63 AUDIO
    TITLE "5:cjc044_0800"
    INDEX 01 01:21:53
  TRACK 64 AUDIO
    TITLE "0:"
    INDEX 01 01:25:04
